Coordinates
version=1
nRows=13
nColumns=36
inDegrees=yes

Units are S.I. units (second, meters, Newtons, ...)
If the header above contains a line with 'inDegrees', this indicates whether rotational values are in degrees (yes) or radians (no).

endheader
time	pelvis_tilt	pelvis_list	pelvis_rotation	pelvis_tx	pelvis_ty	pelvis_tz	hip_flexion_r	hip_adduction_r	hip_rotation_r	knee_angle_r	knee_angle_r_beta	ankle_angle_r	subtalar_angle_r	mtp_angle_r	hip_flexion_l	hip_adduction_l	hip_rotation_l	knee_angle_l	knee_angle_l_beta	ankle_angle_l	subtalar_angle_l	mtp_angle_l	lumbar_extension	lumbar_bending	lumbar_rotation	arm_flex_r	arm_add_r	arm_rot_r	elbow_flex_r	pro_sup_r	arm_flex_l	arm_add_l	arm_rot_l	elbow_flex_l	pro_sup_l
      1.92000000	    -24.20504262	      5.28575259	     -4.99726042	     -0.24664617	      0.65084111	     -0.59899397	     83.99356228	      2.19796245	     16.93559060	    100.73773649	      1.75820518	     28.88549269	    -20.20139130	     -7.49938357	     85.99014566	     -1.64939395	      2.06522588	    100.10327452	      1.74713173	     26.77499915	    -19.43726649	     -7.49938357	    -22.62219945	     -3.94427882	     -0.57342464	    100.72207695	      1.65453029	     21.87473875	    118.26450683	    114.59202942	    109.81190468	      0.11826346	     27.30857910	    113.06728473	    110.32742026
      1.93000000	    -23.92529080	      5.26793701	     -5.15890436	     -0.24184211	      0.66082200	     -0.59893907	     82.33171035	      2.31781839	     16.96664908	     99.26958922	      1.73258118	     28.34192718	    -20.59705677	     -7.49939031	     84.45868972	     -1.65322431	      2.04680573	     98.84939378	      1.72524739	     25.95290594	    -19.25076609	     -7.49939031	    -21.25275808	     -4.02246190	     -0.15949004	    104.06536217	      0.44601640	     21.99349116	    117.49219837	    114.42639266	    113.03455326	     -1.46104854	     28.20083300	    112.80288013	    110.23207948
      1.94000000	    -23.54129592	      5.23587244	     -5.31763058	     -0.23671021	      0.67154457	     -0.59887501	     80.44161421	      2.38100617	     16.98898458	     97.64494978	      1.70422587	     27.63818962	    -21.18116832	     -7.49939757	     82.71878309	     -1.70842808	      1.96346209	     97.44164299	      1.70067750	     25.03569136	    -19.11245017	     -7.49939757	    -19.93607569	     -4.09190446	      0.19170569	    107.21625375	     -0.72484015	     22.16606937	    116.10795779	    114.19909362	    116.18851351	     -3.08883126	     29.32042538	    112.17488098	    110.06064040
      1.95000000	    -23.12398284	      5.21658039	     -5.43829594	     -0.23132978	      0.68292447	     -0.59890701	     78.43812996	      2.41101370	     17.08773409	     95.82329664	      1.67243203	     25.95683660	    -22.74852826	     -7.49942404	     80.83472133	     -1.73810854	      1.75170672	     95.84483308	      1.67280791	     23.80290009	    -19.60286977	     -7.49942404	    -18.63176308	     -4.20627306	      0.32158945	    110.17321150	     -1.86872544	     22.29616757	    114.34264350	    113.61411365	    119.42689722	     -4.78728670	     30.82291652	    111.33967337	    109.19753921
      1.96000000	    -22.60230397	      5.18733577	     -5.57440071	     -0.22576654	      0.69492699	     -0.59893584	     76.29341390	      2.36637753	     17.18235607	     93.97330970	      1.64014366	     25.27885467	    -22.93998375	     -7.49943543	     78.73907123	     -1.78797538	      1.56127567	     94.11994839	      1.64270299	     23.07433724	    -19.38021027	     -7.49943543	    -17.44046607	     -4.32584610	      0.67097265	    113.27053009	     -3.44591876	     22.94960256	    112.24462920	    113.29768356	    122.64595106	     -6.18392567	     32.32658032	    109.92884811	    108.79417313
      1.97000000	    -22.19424222	      5.17343172	     -5.68383230	     -0.22001649	      0.70713396	     -0.59890950	     74.24226478	      2.24829014	     17.22925996	     92.01989093	      1.60605007	     24.62058035	    -22.97890638	     -7.49944144	     76.72909841	     -1.93315796	      1.22327923	     92.28250441	      1.61063354	     22.27512599	    -19.01925986	     -7.49944144	    -15.97082032	     -4.44582032	      1.19303522	    116.17065076	     -5.03139400	     23.81429555	    109.43196827	    112.98141548	    125.47826907	     -7.15989286	     33.99574540	    107.96299245	    108.51850414
      1.98000000	    -21.68302073	      5.13095842	     -5.75092158	     -0.21413720	      0.72011338	     -0.59863254	     71.96520053	      2.14600425	     17.29686291	     89.89921589	      1.56903731	     23.78136094	    -23.28274438	     -7.49944768	     74.50635100	     -2.05641909	      0.91550487	     90.24721148	      1.57511098	     21.37563625	    -18.80080463	     -7.49944768	    -14.70222390	     -4.57472995	      1.57154569	    119.17719150	     -6.53292732	     25.27012326	    106.43574252	    112.66641601	    128.65961953	     -8.05847069	     36.05696388	    105.47002017	    108.25189505
      1.99000000	    -21.11113688	      5.04975533	     -5.81290162	     -0.20821925	      0.73383808	     -0.59813677	     69.58174111	      2.04103000	     17.21052228	     87.54457850	      1.52794114	     21.37592588	    -25.33879154	     -7.49947490	     72.14890235	     -2.24574927	      0.54811288	     88.00041144	      1.53589692	     19.74835389	    -19.49728704	     -7.49947490	    -13.64869364	     -4.75249910	      1.73470210	    122.36701630	     -7.99520148	     27.09113317	    103.32660374	    111.95801690	    132.41359826	     -8.93780576	     38.78823660	    102.60147033	    107.84131574
      2.00000000	    -20.64004073	      4.83411801	     -5.83403547	     -0.20208621	      0.74790255	     -0.59783223	     67.19540731	      1.86656614	     16.95526350	     85.03862837	      1.48420406	     20.42381107	    -25.51397189	     -7.49948590	     69.86411810	     -2.49840073	      0.35544566	     85.71474340	      1.49600449	     18.70411634	    -19.04667439	     -7.49948590	    -12.36845258	     -4.71188003	      2.19545492	    125.59417181	     -9.49811707	     29.49178149	     99.58095409	    111.51611138	    135.64271204	     -9.32206415	     41.32733715	     99.12400343	    107.55585678
      2.01000000	    -20.27911358	      4.54438829	     -5.82389337	     -0.19594342	      0.76242555	     -0.59780926	     64.82987040	      1.66029147	     16.54716069	     82.22829103	      1.43515442	     18.43242581	    -26.63678728	     -7.49951186	     67.64235386	     -2.71540043	      0.22933889	     83.23267727	      1.45268426	     17.15031961	    -19.10140472	     -7.49951186	    -10.98200610	     -4.52430686	      2.62084657	    128.81277758	    -10.71352430	     32.05462424	     95.40088348	    110.62820286	    138.78314367	     -9.53733184	     43.98920908	     95.21042556	    107.16400370
      2.02000000	    -19.98938979	      4.17440341	     -5.77193942	     -0.18970725	      0.77740600	     -0.59805683	     62.42861559	      1.41355480	     16.03801667	     79.20998305	      1.38247500	     17.20915917	    -26.73322239	     -7.49952302	     65.45149942	     -2.92324243	      0.20909270	     80.62187843	      1.40711723	     15.76446947	    -18.64799080	     -7.49952302	     -9.53335952	     -4.20379689	      3.13246175	    132.09129854	    -11.75605150	     34.80703366	     90.64341333	    110.12792313	    141.64300201	     -9.32222937	     46.42007550	     90.68103307	    106.78115078
      2.03000000	    -19.75607088	      3.71082122	     -5.72469905	     -0.18339586	      0.79307839	     -0.59844558	     59.95615058	      1.23523666	     15.44871910	     75.84450390	      1.32373631	     14.69717566	    -27.91805480	     -7.49955032	     63.26409420	     -3.16736556	      0.26115067	     77.81010596	      1.35804254	     13.60831049	    -18.84003334	     -7.49955032	     -8.02414105	     -3.74397501	      3.93175428	    135.37355077	    -12.74936428	     38.06751509	     85.43052532	    109.43531756	    144.02027669	     -8.59251531	     48.29286033	     85.50224050	    106.66426530
      2.04000000	    -19.40916988	      3.20681657	     -5.66582164	     -0.17690919	      0.80966024	     -0.59902688	     57.27083785	      0.96154267	     14.76491863	     72.24339851	      1.26088517	     12.60981925	    -28.20058708	     -7.49957032	     60.91213839	     -3.44583339	      0.26994895	     74.85091896	      1.30639498	     11.44594923	    -18.73695483	     -7.49957032	     -6.68208464	     -3.22288925	      4.77438297	    138.63561832	    -13.42182893	     41.45507057	     79.64145242	    109.19613243	    146.20450861	     -7.61509879	     50.08725891	     79.61324344	    106.79863340
